<?xml version="1.0" encoding="UTF-8" standalone="no"?>
<!-- Generator: Adobe Illustrator 16.0.0, SVG Export Plug-In . SVG Version: 6.00 Build 0)  -->

<svg
   version="1.1"
   id="Layer_1"
   x="0px"
   y="0px"
   width="1859.2629"
   height="1119.204"
   viewBox="0 0 1859.2629 1119.204"
   enable-background="new 0 0 2000 2000"
   xml:space="preserve"
   sodipodi:docname="eer-yellow.svg"
   inkscape:version="1.3 (0e150ed, 2023-07-21)"
   xmlns:inkscape="http://www.inkscape.org/namespaces/inkscape"
   xmlns:sodipodi="http://sodipodi.sourceforge.net/DTD/sodipodi-0.dtd"
   xmlns="http://www.w3.org/2000/svg"
   xmlns:svg="http://www.w3.org/2000/svg"><defs
   id="defs45" /><sodipodi:namedview
   id="namedview45"
   pagecolor="#505050"
   bordercolor="#eeeeee"
   borderopacity="1"
   inkscape:showpageshadow="0"
   inkscape:pageopacity="0"
   inkscape:pagecheckerboard="0"
   inkscape:deskcolor="#505050"
   inkscape:zoom="0.44587561"
   inkscape:cx="929.63147"
   inkscape:cy="558.45172"
   inkscape:window-width="1312"
   inkscape:window-height="449"
   inkscape:window-x="0"
   inkscape:window-y="25"
   inkscape:window-maximized="0"
   inkscape:current-layer="Layer_1" />&#10;<path
   fill="#020001"
   d="m 929.625,1119.204 c -123.832,0 -244.034,-14.283 -357.267,-42.457 C 462.458,1049.403 363.585,1010.159 278.486,960.101 192.218,909.355 124.244,849.923 76.45,783.456 25.721,712.907 0,637.591 0,559.603 0,481.615 25.722,406.299 76.45,335.749 124.244,269.281 192.219,209.85 278.486,159.103 363.585,109.046 462.458,69.8 572.358,42.457 685.59,14.285 805.793,0 929.625,0 c 123.838,0 244.045,14.285 357.279,42.457 109.903,27.344 208.777,66.589 293.875,116.646 86.269,50.746 154.242,110.178 202.035,176.646 50.728,70.549 76.449,145.863 76.449,223.854 0,77.987 -25.722,153.304 -76.449,223.853 -47.793,66.467 -115.767,125.9 -202.035,176.645 -85.099,50.059 -183.972,89.303 -293.875,116.646 -113.234,28.173 -233.441,42.457 -357.279,42.457 z"
   id="path1" />&#10;<path
   fill="#fcee21"
   d="m 1828.264,559.603 c 0,291.938 -402.324,528.601 -898.639,528.601 C 433.336,1088.204 31,851.542 31,559.603 31,267.664 433.336,31 929.625,31 c 496.315,0 898.639,236.664 898.639,528.603 z"
   id="path2" />&#10;<path
   fill="#2e3192"
   d="m 435.2,391.339 h 16.564 l -5.014,20.339 c -0.621,2.497 -15.653,61.196 -63.222,62.892 -10.729,0.383 -25.854,0.574 -44.935,0.574 -31.404,0 -63.566,-0.529 -65.617,-0.564 -7.896,-0.064 -19.755,-4.029 -27.495,-15.07 -10.967,-15.643 -10.511,-39.208 1.404,-72.044 4.604,-12.689 8.223,-24.203 10.829,-34.459 0.146,-0.548 0.283,-1.086 0.411,-1.614 0.009,-0.046 0.027,-0.1 0.036,-0.146 0.483,-1.97 0.93,-3.893 1.34,-5.762 0.574,-2.607 1.076,-5.123 1.496,-7.539 0.592,-3.346 1.039,-6.509 1.34,-9.499 0.318,-3.108 0.483,-6.025 0.501,-8.751 0.019,-3.109 -0.174,-5.917 -0.557,-8.406 -0.893,-5.807 -2.862,-9.891 -5.889,-12.196 l -5.698,-4.349 c -1.011,-3.301 -1.576,-7.348 -1.367,-12.408 -0.063,-2.998 0.274,-5.306 1.158,-7.082 1.604,-3.264 5.06,-4.731 11.277,-5.352 1.111,-0.119 2.324,-0.2 3.618,-0.265 H 423.1 c 1.505,-0.118 2.999,-0.183 4.449,-0.183 13.92,0 25.908,5.598 33.757,15.744 6.527,8.441 10.028,19.746 10.128,32.699 0.137,18.808 -6.938,39.72 -18.926,55.938 -5.147,6.955 -10.972,12.817 -17.308,17.503 z"
   id="path3" />&#10;<path
   fill="#ffffff"
   d="m 396.556,388.176 c 58.727,-0.857 82.557,-107.233 27.239,-102.129 -27.239,0 -157.446,0 -157.446,0 16.173,12.344 19.573,41.917 -4.038,107.016 -23.62,65.108 10.849,65.108 10.849,65.108 0,0 74.042,1.275 109.787,0 35.735,-1.277 47.869,-50.423 47.869,-50.423 h -77.232 c 0,3.829 -3.829,16.592 -3.829,16.592 h -19.153 l 10.639,-36.164 z M 358.05,319.03 h 17.867 l -8.934,35.735 h -19.144 z"
   id="path4" />&#10;<path
   fill="#2e3192"
   d="m 1365.802,822.985 c -31.404,0 -63.563,-0.533 -65.617,-0.568 -7.896,-0.059 -19.76,-4.031 -27.498,-15.07 -10.967,-15.645 -10.507,-39.209 1.404,-72.041 10.513,-28.982 15.88,-51.785 15.955,-67.771 0.049,-10.371 -2.121,-17.303 -6.447,-20.604 l -38.59,-29.453 h 205.297 c 1.505,-0.119 3,-0.178 4.454,-0.178 13.918,0 25.906,5.588 33.757,15.738 6.528,8.439 10.029,19.748 10.123,32.701 0.138,18.807 -6.938,39.717 -18.926,55.932 -5.145,6.959 -10.971,12.824 -17.313,17.508 h 16.568 l -5.019,20.338 c -0.37,1.506 -3.871,15.107 -12.406,29.271 -12.813,21.266 -30.382,32.891 -50.808,33.621 -10.734,0.382 -25.852,0.576 -44.934,0.576 z"
   id="path5" />&#10;<path
   fill="#ffffff"
   d="m 1423.762,736.014 c 58.727,-0.857 82.557,-107.234 27.239,-102.129 -27.239,0 -157.446,0 -157.446,0 16.173,12.344 19.573,41.916 -4.038,107.016 -23.62,65.107 10.849,65.107 10.849,65.107 0,0 74.042,1.275 109.786,0 35.744,-1.275 47.869,-50.422 47.869,-50.422 h -77.232 c 0,3.828 -3.829,16.592 -3.829,16.592 h -19.153 l 10.648,-36.164 z m -38.507,-69.146 h 17.868 l -8.934,35.734 h -19.145 z"
   id="path6" />&#10;<path
   fill="#2e3192"
   d="m 1126.437,475.146 c -31.403,0 -63.563,-0.533 -65.617,-0.568 -7.894,-0.059 -19.754,-4.029 -27.491,-15.066 -10.967,-15.643 -10.51,-39.208 1.397,-72.042 10.516,-28.982 15.885,-51.784 15.959,-67.773 0.05,-10.372 -2.119,-17.305 -6.444,-20.607 l -38.562,-29.45 h 205.263 c 1.506,-0.118 3.001,-0.178 4.454,-0.178 13.918,0 25.907,5.591 33.758,15.74 6.528,8.44 10.028,19.749 10.123,32.702 0.137,18.806 -6.938,39.714 -18.924,55.93 -5.144,6.959 -10.969,12.824 -17.311,17.507 h 16.564 l -5.019,20.34 c -0.616,2.498 -15.64,61.191 -63.216,62.891 -10.734,0.381 -25.852,0.574 -44.934,0.574 z"
   id="path7" />&#10;<path
   fill="#ffffff"
   d="m 1184.407,388.176 c 58.717,-0.857 82.547,-107.233 27.229,-102.129 -27.229,0 -157.437,0 -157.437,0 16.162,12.344 19.572,41.917 -4.049,107.016 -23.609,65.108 10.85,65.108 10.85,65.108 0,0 74.041,1.275 109.786,0 35.744,-1.277 47.87,-50.423 47.87,-50.423 h -77.233 c 0,3.829 -3.829,16.592 -3.829,16.592 h -19.145 l 10.64,-36.164 z m -38.516,-69.146 h 17.878 l -8.944,35.735 h -19.144 z"
   id="path8" />&#10;<path
   fill="#2e3192"
   d="m 480.276,475.158 c -21.446,0 -35.933,-14.031 -37.805,-36.619 -1.408,-16.986 4.339,-39.42 15.372,-60.01 3.831,-7.151 9.918,-17.026 17.891,-25.223 h -16.106 l 5.804,-20.815 c 0.708,-2.537 17.906,-62.147 68.496,-63.023 11.577,-0.2 25.901,-0.303 42.576,-0.303 28.322,0 54.021,0.299 54.277,0.302 l 2.446,0.028 2.332,0.742 c 15.044,4.78 42.22,21.681 37.4,51.419 -2.374,14.632 -7.911,32.801 -12.797,48.831 -3.348,10.985 -6.511,21.362 -7.708,27.59 -0.45,2.333 -1.004,4.807 -1.59,7.426 -3.897,17.408 -6.648,33.54 2.356,39.661 l 44.12,29.98 H 481.445 c -0.395,0.01 -0.782,0.014 -1.169,0.014 z"
   id="path9" />&#10;<path
   fill="#ffffff"
   d="m 656.761,319.03 c 3.828,-23.62 -26.173,-33.155 -26.173,-33.155 0,0 -57.442,-0.675 -96.377,0 -38.936,0.674 -52.974,51.022 -52.974,51.022 h 76.639 l 3.146,-17.867 h 20.421 l -11.486,35.735 h -66.375 c -30.641,5.114 -70.852,105.32 -22.344,103.971 h 162.761 c -21.706,-14.75 -10.857,-47.158 -7.658,-63.759 3.189,-16.592 16.591,-52.336 20.42,-75.947 z m -104.29,105.739 h -18.843 l 9.116,-35.863 h 19.444 z"
   id="path10" />&#10;<path
   fill="#2e3192"
   d="m 880.345,340.955 -3.492,11.714 h -0.61 l -0.392,3.938 c -0.109,1.131 -2.872,28.042 -12.689,55.454 -18.461,51.524 -46.73,62.747 -67.187,63.093 -15.908,0.273 -32.855,0.41 -50.367,0.41 -28.215,0 -48.954,-0.365 -51.278,-0.4 h -0.028 c -3.446,0 -21.195,-0.775 -32.663,-16.119 -9.59,-12.836 -11.204,-30.976 -4.804,-53.958 0,0 32.981,-93.358 13.892,-107.27 l -20.428,-18.224 c -0.037,-0.036 -0.073,-0.064 -0.109,-0.1 -11.113,-9.965 -2.006,-10.329 -0.611,-10.329 0.108,0 0.173,0 0.173,0 h 194.103 l 0.501,0.027 c 17.103,1.048 26.483,9.545 31.333,16.481 14.41,20.614 5.705,51.791 4.656,55.283 z"
   id="path11" />&#10;<path
   fill="#ffffff"
   d="m 681.653,285.572 c 0,0 143.826,0 161.698,0 35.743,2.18 21.273,50.688 21.273,50.688 h -77.441 l 4.254,-17.87 -16.851,0.851 -10.382,35.743 h 95.315 c 0,0 -10.213,102.858 -63.827,103.769 -53.615,0.908 -101.273,0 -101.273,0 0,0 -36.595,0.908 -21.275,-51.005 h 74.89 l -3.402,17.021 18.721,0.851 10.212,-34.892 -97.016,-1.703 c -10e-4,-0.002 33.188,-78.4 5.104,-103.453 z"
   id="path12" />&#10;<path
   fill="#2e3192"
   d="m 1057.732,323.283 -3.27,12.159 h -47.98 l -33.56,121.94 -11.5,27.33 -11.05,-0.131 c -34.04,-0.42 -56.64,-8.859 -69.08,-25.799 -16.07,-21.891 -7.85,-49.301 -5.15,-58.311 4.7,-15.649 12.63,-45.1 17.92,-65.03 h -13.15 l -1.92,-14.229 c -1.22,-8.97 -4.11,-19.601 -6.05,-22.29 0.49,0.68 2.54,2.57 6.07,3.14 l 2.52,-32.6 29.19,-0.21 16.439,-61.641 c 0.011,-0.05 0.031,-0.1 0.041,-0.149 2.13,-7.98 8.43,-8.46 15.35,-8.46 h 80.25 c 5.99,0 15.42,2.62 13.38,10.76 0,0.01 -0.01,0.03 -0.01,0.04 l -15.58,61.18 c 13.28,2.721 23.37,8.5 30.1,17.28 11.84,15.441 7.56,33.07 7.04,35.021 z"
   id="path13" />&#10;<path
   fill="#ffffff"
   d="m 1017.809,215.415 -17.872,70.157 c 51.063,-0.477 41.947,33.454 41.947,33.454 h -47.9 L 957.387,452 l -6.806,16.17 c -68.935,-0.85 -66.382,-37.444 -58.722,-62.976 7.659,-25.531 23.513,-86.168 23.513,-86.168 H 895.26 c 0,0 -4.253,-31.632 -13.613,-33.154 l 41.697,-0.3 18.726,-70.157 z"
   id="path14" />&#10;<path
   fill="#2e3192"
   d="m 1209.638,475.146 8.074,-22.051 c 0.125,-0.342 12.529,-34.33 22.531,-71.392 18.516,-68.609 11.257,-81.76 10.939,-82.286 0.168,0.279 0.965,1.198 2.369,1.745 l 5.952,-31.701 h 154.886 c 26.529,0.116 37.559,14.945 41.778,23.773 9.605,20.098 2.771,46.157 -3.435,53.914 l -4.927,6.159 h -89.022 l -36.896,121.838 h -112.249 z"
   id="path15" />&#10;<path
   fill="#ffffff"
   d="m 1259.504,285.872 c 0,0 126.803,0 154.886,0 40.85,0.178 29.785,45.707 25.53,51.027 h -77.443 l 3.404,-17.873 h -13.86 l -42.308,139.71 h -76.593 c 0,0 58.721,-160.277 26.384,-172.864 z"
   id="path16" />&#10;<path
   fill="#2e3192"
   d="m 1414.357,475.146 5.446,-20.602 c 0.238,-0.902 23.878,-90.336 28.918,-109.66 6.955,-26.653 4.876,-42.784 2.204,-45.579 l -43.022,-29.844 h 206.48 c 20.534,0 31.46,8.663 37.011,15.929 6.495,8.504 12.67,24.39 5.201,51.783 -2.508,9.186 -32.848,124.572 -33.153,125.736 l -3.218,12.236 h -205.867 z"
   id="path17" />&#10;<path
   fill="#ffffff"
   d="m 1460.347,285.872 c 0,0 115.741,0 154.036,0 38.297,0 28.933,37.625 26.38,46.985 -2.555,9.36 -33.191,125.879 -33.191,125.879 h -76.593 l 37.45,-139.71 h -20.426 l -35.743,139.71 h -76.593 c 0,0 23.827,-90.137 28.932,-109.71 5.107,-19.573 10.213,-53.121 -4.252,-63.154 z"
   id="path18" />&#10;<path
   fill="#2e3192"
   d="m 1254.301,768.467 c -3.491,17.121 7.366,27.742 8.597,28.881 l 1.851,19.107 -12.89,9.801 -11.688,-0.293 c -1.459,6.482 -3.583,15.041 -6.609,25.48 -9.189,31.77 -51.352,45.945 -56.129,47.459 l -2.415,0.766 h -162.561 c -3.19,0 -3.665,-3.438 -3.146,-5.561 l 14.295,-58.207 c 0.865,-3.539 3.363,-5.434 6.7,-5.434 h 95.793 l 1.185,-4.35 c -3.865,0.047 -8.059,0.074 -12.453,0.074 -11.111,0 -21.167,-0.191 -29.883,-0.584 -17.065,-0.756 -26.893,-8.971 -32.144,-15.734 -14.185,-18.287 -9.755,-43.775 -8.724,-48.709 1.166,-5.514 3.893,-14.631 7.33,-26.162 4.686,-15.707 10.528,-35.262 13.054,-48.271 6.226,-32.033 27.722,-69.428 67.806,-69.428 h 165.086 l -6.399,21.158 c -0.309,1.031 -31.122,102.988 -36.656,130.007 z"
   id="path19" />&#10;<path
   fill="#ffffff"
   d="m 1238.23,765.176 c 5.742,-28.078 37.02,-131.465 37.02,-131.465 0,0 -111.062,0 -142.979,0 -31.906,0 -47.23,33.174 -51.697,56.146 -4.467,22.982 -17.868,62.557 -20.43,74.682 -2.544,12.123 -3.182,43.402 25.535,44.678 28.725,1.275 63.192,0 63.192,0 l -10.219,37.66 h -100.844 l -8.934,36.381 c 0,0 95.101,0 143.607,0 0,0 38.298,-12.123 45.317,-36.381 7.028,-24.25 8.942,-37.66 8.942,-37.66 l 25.525,0.639 c 0,0 -19.779,-16.592 -14.035,-44.68 z m -82.338,9.572 h -17.877 l 28.725,-107.881 h 17.239 z"
   id="path20" />&#10;<path
   fill="#2e3192"
   d="m 1090.152,555.572 c -0.05,0.211 -0.109,0.42 -0.17,0.631 l -1.93,6.709 c -20.18,70.051 -52.729,185.011 -54.75,197.2 -0.83,11.61 1.03,32.05 4.061,36.98 -0.5,-0.66 -2.211,-2.24 -5.051,-2.851 l -3.439,32.45 h -166.8 c -20.78,0 -31.5,-9.13 -36.83,-16.77 -13.31,-19.101 -5.57,-46.19 -1.57,-57.03 0.7,-2.14 3.07,-11.95 5.15,-20.62 5.75,-23.89 13.64,-56.61 19.76,-71.61 10.73,-26.279 33.03,-41.67 62.79,-43.329 7.07,-0.4 16.01,-0.601 26.569,-0.601 7.881,0 15.431,0.101 21.45,0.23 l 16.48,-60.76 c 0.02,-0.061 0.029,-0.131 0.05,-0.19 3.78,-13.67 11.08,-14.05 18.71,-14.05 h 72.33 c 15.9,10e-4 26.31,1.521 23.19,13.611 z"
   id="path21" />&#10;<path
   fill="#ffffff"
   d="m 1016.96,758.485 c 0.848,-10.947 55.317,-200.108 55.317,-200.108 h -79.995 l -20.43,75.335 c 0,0 -36.592,-1.293 -59.564,0 -22.982,1.285 -40.011,12.326 -48.517,33.156 -8.505,20.822 -22.125,84.699 -24.678,91.617 -2.552,6.92 -17.877,51.799 22.974,51.799 40.849,0 166.808,0 166.808,0 -11.915,-2.553 -12.763,-40.85 -11.915,-51.799 z m -86.375,16.263 H 915.26 L 945.9,666.867 h 16.182 z"
   id="path22" />&#10;<path
   fill="#ffffff"
   d="m 1135.954,720.963 -142.596,45.49 -2.598,-1.842 c -14.104,-10.027 -47.277,-21.578 -50.586,-22.709 l 13.884,-47.568 c 11.97,-2.096 42.062,-14.047 60.641,-22.143 l 2.498,-1.084 z"
   id="path23" />&#10;<path
   fill="#020001"
   d="m 941.965,735.768 c 0,0 36.762,12.471 52.487,23.639 l 123.068,-39.266 -100.277,-42.098 c 0,0 -50.629,22.051 -65.13,22.963 z"
   id="path24" />&#10;<polygon
   fill="#ffffff"
   points="789.607,1117.576 764.032,1201.609 737.54,1185.246 749.879,1134.816 "
   id="polygon24"
   transform="translate(-70.368,-440.398)" />&#10;<polygon
   fill="#020001"
   points="744.842,1182.256 755.325,1139.41 779.482,1128.926 760.339,1191.828 "
   id="polygon25"
   transform="translate(-70.368,-440.398)" />&#10;<path
   fill="#ffffff"
   d="m 1199.421,410.848 c -0.976,0.337 -98.819,34.358 -203.52,37.923 -64.479,2.207 -115.292,11.459 -155.33,28.307 -24.605,10.346 -45.674,23.857 -62.62,40.139 -18.697,17.967 -32.974,39.883 -42.444,65.144 l -0.129,0.328 -0.082,0.338 c -0.51,2.006 -51.178,200.949 -65.555,247.66 -8.906,28.953 -10.438,75.164 14.55,110.105 20.722,28.971 54.916,44.396 101.664,45.836 118.457,3.646 234.679,26.684 247.269,35.344 l 8.076,-9.826 -76.539,-74.645 -3.601,1.084 c -0.511,0.156 -52.537,15.59 -112.147,15.6 -30.449,0 -57.66,-4.004 -80.87,-11.889 -26.373,-8.961 -41.926,-26.326 -46.229,-51.625 -6.5,-38.262 15.297,-82.811 26.227,-91.371 15.261,-11.943 55.755,-35.254 75.265,-46.283 l 2.16,-8.533 10.895,-42.947 1.703,-6.736 c -12.854,-9.936 -43.146,-36.465 -50.029,-70.412 -3.883,-19.154 0.301,-38.098 12.436,-56.303 47.367,-71.052 116.596,-81.198 184.348,-81.581 0.729,-0.01 1.449,-0.01 2.169,-0.01 58.372,0 91.627,13.602 91.946,13.738 l 3.109,1.314 122.858,-79.321 z"
   id="path25" />&#10;<path
   fill="#020001"
   d="m 795.263,564.547 c -44.697,67.049 23.529,123.881 41.197,136.988 l -10.895,42.947 c -16.318,9.152 -64.087,36.283 -81.354,49.793 -20.967,16.408 -64.916,124.582 21.879,154.064 86.796,29.48 196.91,-3.646 196.91,-3.646 l 73.842,72.018 C 1022.256,1006.684 904.656,983.893 786.146,980.246 667.636,976.599 661.254,879.967 675.84,832.562 c 14.586,-47.405 65.638,-247.96 65.638,-247.96 38.288,-102.101 147.683,-125.804 254.643,-129.45 106.131,-3.619 203.885,-37.749 205.407,-38.278 l -120.016,77.479 c 0,0 -34.642,-14.586 -96.632,-14.23 -61.99,0.345 -138.566,7.847 -189.617,84.424 z"
   id="path26" />&#10;<polygon
   fill="#ffffff"
   points="758.098,1135.307 745.521,1183.928 269.621,1183.928 283.788,1135.307 "
   id="polygon26"
   transform="translate(-70.368,-440.398)" />&#10;<polygon
   fill="#020001"
   points="278.127,1177.547 288.575,1141.688 749.855,1141.688 740.58,1177.547 "
   id="polygon27"
   transform="translate(-70.368,-440.398)" />&#10;<path
   fill="#ffffff"
   d="m 420.478,827.549 -0.372,-19.871 2.305,-5.184 v -8.73 c -1.486,-0.158 -3.102,-0.279 -4.58,-0.279 -1.23,0 -1.94,0.086 -2.295,0.15 -4.196,3.123 -11.711,3.377 -14.02,3.377 -7.34,0 -12.606,-2.037 -15.177,-5.803 -1.258,0.195 -2.905,0.613 -4.3,0.967 -2.68,0.682 -5.211,1.324 -7.6,1.324 -1.832,0 -3.457,-0.396 -4.831,-1.178 -2.831,-1.164 -16.59,-2.689 -19.985,-2.832 h -4.644 l -1.42,-4.543 c -1.404,-4.615 2.218,-7.043 4.383,-8.496 10.944,-7.338 16.91,-13.555 17.73,-18.475 1.197,-7.184 -1.781,-14.412 -8.854,-21.482 l -1.5,-1.492 c -29.673,-29.443 -30.888,-33.51 -30.412,-37.701 0.643,-5.678 6.003,-7.451 9.917,-8.746 1.501,-0.498 5.01,-1.658 5.539,-2.533 -0.001,0 0.006,-0.039 0.01,-0.109 0.12,-2.285 -0.793,-4.805 -1.851,-7.721 -1.907,-5.258 -4.28,-11.803 -0.734,-19.289 2.525,-5.33 0.417,-15.35 -0.482,-19.627 -0.21,-0.998 -0.37,-1.756 -0.476,-2.404 -0.52,-1.447 -3.039,-5.957 -4.724,-8.973 -3.81,-6.82 -6.184,-11.184 -7.023,-14.275 -1.85,-6.813 -0.075,-11.516 0.3,-12.391 l 4.702,-10.973 6.512,10.006 c 6.863,10.547 16.104,23.002 19.089,24.98 6.878,2.865 23.011,17.051 25.541,20.846 0.124,0.186 0.254,0.385 0.39,0.592 1.154,-0.521 2.412,-0.805 3.719,-0.805 4.036,0 7.659,2.563 9.94,7.029 0.575,1.127 1.477,2.588 2.43,4.133 3.034,4.914 6.473,10.484 6.473,15.988 0,0.994 1.61,2.992 2.715,3.451 1.32,-0.326 2.541,-0.438 3.544,-0.531 0.626,-0.059 1.572,-0.145 1.824,-0.264 v 0 c -0.008,0 0.757,-0.688 1.549,-3.682 3.93,-14.848 3.971,-21.695 3.427,-23.348 -3.088,-4.982 -3.515,-13.451 -0.892,-18.256 1.669,-3.057 4.495,-4.811 7.75,-4.811 1.365,0 2.734,0.318 4.07,0.947 1.001,0.471 4.046,1.904 6.076,1.904 0.709,0 1.144,-0.057 1.818,-1.199 1.679,-2.842 5.747,-7.768 12.245,-15.566 6.19,-7.432 17.692,-21.236 18.94,-24.877 0.271,-1.242 0.776,-3.58 0.853,-4.418 -0.06,-0.17 -0.136,-0.352 -0.217,-0.564 -0.125,-0.326 -0.265,-0.689 -0.418,-1.111 -1.163,-3.199 -0.835,-6.568 0.878,-9.014 1.404,-2.006 3.656,-3.205 6.021,-3.205 2.955,0 6.542,1.861 7.747,7.086 l 0.207,0.875 c 1.085,4.557 1.658,8.188 -0.185,16.785 -0.738,3.443 0.144,4.93 1.743,7.627 0.926,1.563 1.977,3.334 2.666,5.543 0.825,2.641 0.989,5.297 1.121,7.432 0.041,0.66 0.097,1.551 0.173,2.195 2.947,2.48 4.084,7.553 4.462,18.688 0.003,0.1 0.253,7.725 -0.087,12.822 0.867,0.648 2.006,1.365 2.93,1.84 0.605,-0.188 1.246,-0.285 1.908,-0.285 3.137,0 5.815,2.281 6.369,5.424 0.521,2.963 -1.127,9.662 -1.464,10.975 -1.668,6.523 -3.606,10.07 -6.505,11.732 -2.156,2.951 -6.271,14.057 -6.35,17.889 0.861,1.607 1.226,3.146 1.451,4.352 0.073,0 0.15,0 0.231,0 7.545,0 14.883,-5.178 15.694,-5.77 2.894,-2.104 6.321,-2.545 8.688,-2.545 4,0 7.322,1.16 9.464,3.109 1.421,-0.355 3.229,-0.869 4.81,-1.316 1.625,-0.461 3.396,-0.965 5.281,-1.467 10.872,-2.9 31.12,-9.203 35.746,-11.637 9.797,-5.156 13.989,-6.813 17.253,-6.813 2.999,0 5.528,1.764 6.439,4.49 1.563,4.678 -1.94,7.316 -5.032,9.646 -2.408,1.813 -6.045,4.551 -8.182,7.355 -5.128,6.73 -17.866,20.096 -20.626,22.51 -0.428,0.404 -0.994,1.578 -1.179,2.359 3.473,5.746 -1.106,10.377 -3.123,12.416 -0.793,0.801 -1.691,1.711 -2.694,2.857 -2.009,2.295 -4.399,4.021 -6.712,5.689 -3.011,2.176 -5.61,4.051 -6.197,6.305 -1.063,4.07 -0.275,8.727 0.56,10.275 4.111,2.236 4.944,6.041 4.362,8.73 -0.967,4.459 -5.561,7.34 -11.705,7.34 -4.156,0 -12.439,1.932 -14.293,3.117 -4.533,3.174 -13.334,5.441 -17.35,6.193 l -0.341,0.064 c -1.633,0.305 -3.807,0.713 -4.705,1.105 -1.659,4.707 -1.595,7.178 -1.237,8.428 0.678,2.373 2.114,5.029 3.635,7.84 0.67,1.238 1.361,2.518 2.014,3.822 1.053,2.104 3.248,6.496 4.516,8.65 l 3.292,1.098 -0.797,5.34 -0.828,5.33 c 0,0 -5.483,0.072 -5.527,0.072 -0.967,0 -1.437,-0.154 -3,-0.664 -12.328,-4.025 -20.526,-6.66 -24.364,-7.828 -7,-2.131 -20.098,-6.393 -22.039,-7.041 -2.138,-0.711 -3.991,-2.314 -11.693,-9.469 -1.061,-0.984 -2.17,-2.016 -3.217,-2.977 -0.088,0.113 -0.177,0.227 -0.268,0.336 l -0.104,11.271 -2.068,3.447 -0.316,16.408 h -14.457 z"
   id="path27" />&#10;<path
   fill="#ec1c24"
   d="m 331.248,603.747 c 0,0 16.409,25.221 21.879,27.35 5.47,2.127 20.967,15.801 22.79,18.537 1.823,2.734 5.166,8.506 6.382,5.164 1.215,-3.342 4.861,-3.748 7.293,1.014 2.431,4.762 8.204,12.055 8.204,17.219 0,5.166 6.077,10.939 10.332,9.725 4.254,-1.215 9.116,1.215 11.851,-9.117 2.735,-10.33 5.47,-24.006 2.735,-28.26 -2.735,-4.254 -2.432,-15.496 2.734,-13.066 5.166,2.432 12.156,4.863 16.105,-1.822 3.95,-6.686 30.387,-35.25 31.907,-42.24 1.52,-6.988 1.215,-6.381 0,-9.723 -1.216,-3.342 1.52,-5.469 2.431,-1.518 0.912,3.947 1.824,6.379 0,14.887 -1.822,8.51 3.04,11.549 4.559,16.41 1.519,4.863 0,10.939 3.038,12.461 3.038,1.518 2.734,26.738 2.127,28.563 -0.606,1.822 10.028,8.813 11.244,6.381 1.215,-2.43 -1.521,14.891 -4.862,16.107 -3.342,1.213 -11.242,22.18 -8.813,25.826 2.431,3.646 -0.607,8.205 7.597,8.205 8.205,0 16.104,-4.559 19.448,-6.988 3.343,-2.432 10.636,-1.217 10.636,1.215 0,2.432 6.381,0 15.497,-2.432 9.116,-2.43 31.3,-9.115 37.073,-12.154 5.773,-3.037 11.851,-6.078 14.281,-6.078 2.432,0 -6.989,4.863 -11.851,11.244 -4.862,6.383 -17.32,19.447 -19.752,21.574 -2.431,2.129 -4.558,7.598 -2.734,10.029 1.823,2.43 -0.609,3.342 -4.863,8.203 -4.253,4.863 -12.457,7.598 -14.281,14.586 -1.822,6.99 0,15.803 3.342,17.322 3.344,1.518 0.912,4.254 -3.949,4.254 -4.861,0 -14.891,2.127 -17.93,4.254 -3.038,2.127 -10.027,4.254 -14.889,5.166 -4.862,0.912 -8.51,1.52 -9.725,4.863 -1.215,3.342 -2.734,8.506 -1.519,12.76 1.215,4.254 3.949,8.508 6.077,12.764 2.127,4.254 5.469,10.939 6.381,11.242 0.912,0.305 -18.537,-6.078 -25.525,-8.205 -6.988,-2.127 -20.056,-6.381 -21.879,-6.988 -1.823,-0.607 -13.674,-12.459 -17.32,-15.193 -3.646,-2.734 -3.95,0.303 -3.95,2.734 0,2.431 -2.279,3.459 -2.279,3.459 l -0.114,12.42 -2.051,3.418 -0.229,11.852 h -1.937 l -0.228,-12.193 2.278,-5.127 V 788.24 c 0,0 -13.902,-2.621 -16.864,0.113 -2.963,2.734 -18.917,3.875 -20.74,-1.596 -1.823,-5.469 -15.041,2.051 -18.46,0 -3.419,-2.051 -21.879,-3.646 -23.019,-3.646 -1.14,0 20.132,-11.318 22.259,-24.08 2.128,-12.764 -6.076,-22.488 -10.635,-27.047 -4.558,-4.559 -30.54,-29.941 -30.084,-33.963 0.456,-4.022 15.042,-3.109 15.497,-11.77 0.456,-8.66 -7.293,-15.953 -3.19,-24.613 4.103,-8.66 0,-22.791 -0.456,-25.982 -0.455,-3.189 -10.496,-18.688 -11.857,-23.701 -1.361,-5.013 0.008,-8.208 0.008,-8.208 z"
   id="path28" />&#10;<path
   fill="#2e3192"
   d="m 1262.894,797.348 c 0,0 28.947,25.646 -11.035,28.91"
   id="path29" />&#10;<path
   fill="#2e3192"
   d="m 999.077,826.288 c 0,0 0.912,0.912 27.653,0 26.741,-0.912 24.31,-12.762 23.702,-17.625 -0.607,-4.861 -13.067,-16.105 -16.409,-21.27 -18.853,-29.141 -1.467,-27.779 -1.435,-27.986 l -5.774,31.223 2.929,11.395 -0.868,9.779 -10.265,2.527"
   id="path30" />&#10;<path
   fill="#2e3192"
   d="m 1030.307,830.467 -6.7,5.434 c 0.865,-3.539 3.363,-5.434 6.7,-5.434 z"
   id="path31" />&#10;<path
   fill="#2e3192"
   d="m 1012.457,899.668 c -3.19,0 -3.665,-3.438 -3.146,-5.561 z"
   id="path32" />&#10;<path
   fill="#2e3192"
   d="m 1259.504,269.461 c 0,0 -13.595,0 -20.28,0 -6.685,0 -4.862,15.523 3.646,20.992 8.508,5.471 16.634,7.293 16.634,7.293"
   id="path33" />&#10;<path
   fill="#2e3192"
   d="m 881.529,269.465 c 0,0 -12.426,0 -17.591,0 -5.166,0 -6.382,5.49 0,9.745 6.381,4.255 9.42,15.194 9.42,15.194 l 8.171,5.621"
   id="path34" />&#10;<path
   fill="#2e3192"
   d="m 650.298,279.593 c -0.037,-0.036 -0.073,-0.064 -0.109,-0.1 -11.113,-9.965 -2.006,-10.329 -0.611,-10.329 0.108,0 0.173,0 0.173,0 z"
   id="path35" />&#10;<path
   fill="#2e3192"
   d="m 262.448,292.428 7.037,21.651 c 0,0 -11.77,39.665 -11.77,38.927 0,-0.083 0.138,-0.583 0.411,-1.614 0.009,-0.046 0.027,-0.1 0.036,-0.146 1.632,-6.017 3.956,-14.066 4.176,-22.8 0.209,-8.013 -1.359,-16.609 -6.874,-24.751 -9.918,-14.986 -9.481,-23.574 -4.978,-28.441 2.727,-2.963 6.965,-4.541 11.277,-5.352 1.111,-0.119 2.324,-0.2 3.618,-0.265 h 11.77 l -17.011,10.028 z"
   id="path36" />&#10;<polyline
   fill="none"
   points="909.553,1131.188 908.531,1135.197 906.828,1141.934 895.934,1184.881 893.773,1193.414   893.208,1195.629 "
   id="polyline36"
   transform="translate(-70.368,-440.398)" />&#10;<polyline
   fill="none"
   points="1008.82,1188.199 1010.543,1182.301 1024.427,1134.732 1026.706,1126.93 "
   id="polyline37"
   transform="translate(-70.368,-440.398)" />&#10;<path
   fill="#ffffff"
   d="m 1041.3,1012.145 c 0,0 18.281,18.268 -8.076,9.826 l 0.428,-2.582 z"
   id="path37" />&#10;<path
   fill="#2e3192"
   d="m 1036.182,209.762 c 0,0.01 -0.01,0.03 -0.01,0.04 l -13.37,-10.8 c 5.99,0 15.42,2.621 13.38,10.76 z"
   id="path38" />&#10;<path
   fill="#2e3192"
   d="M 939.702,223.874"
   id="path39" />&#10;<path
   fill="#2e3192"
   d="m 937.73,231.673 c 1.973,-7.799 2.902,-16.259 14.402,-16.259 11.5,0 6.667,-5.412 5.5,-5.612 -1.167,-0.2 -16.305,-14.2 -19.902,-3.2 -3.597,11 -4.431,15.5 -4.431,15.5"
   id="path40" />&#10;<path
   fill="#2e3192"
   d="m 1007.882,215.415 c 5.75,0 9.692,0.923 8.412,5.947 -1.28,5.024 3.463,-2.135 3.463,-2.135 l 0.875,-9.425 -5.75,-1.825 -4.75,2.5"
   id="path41" />&#10;<path
   fill="#2e3192"
   d="m 1090.152,555.572 c -0.05,0.211 -0.109,0.42 -0.17,0.631 l -23.02,-14.24 c 15.9,-10e-4 26.31,1.519 23.19,13.609 z"
   id="path42" />&#10;<path
   fill="#2e3192"
   d="m 1061.132,558.435 c 5,0 11.334,-0.499 8.667,8.834 -2.667,9.333 7.332,0.334 7.166,0 -0.166,-0.334 -4.688,-14.167 -4.688,-14.167 l -9.813,-3 h -6"
   id="path43" />&#10;<path
   fill="#2e3192"
   d="m 994.632,541.962 -18.76,14.24 c 0.02,-0.061 0.029,-0.131 0.05,-0.19 3.78,-13.67 11.08,-14.05 18.71,-14.05 z"
   id="path44" />&#10;<path
   fill="#2e3192"
   d="m 1004.132,558.435 c -8,0 -12.167,0.334 -14.167,7.834 -2,7.5 -10.333,5.224 -10.333,5.224 l 1.167,-10.695 4.453,-3.695 c 0,0 6.047,-3.5 6.63,-3.5 0.583,0 10.417,0 10.417,0"
   id="path45" />&#10;</svg>
